<svg xmlns="http://www.w3.org/2000/svg" viewBox="0 0 512 1024" width="512" height="1024"><rect x="206" y="660" width="46" height="320" rx="21" fill="#1e2935"/><ellipse cx="228" cy="978" rx="44" ry="20" fill="#16181d"/><rect x="252" y="660" width="48" height="320" rx="22" fill="#2b3a4a"/><ellipse cx="284" cy="978" rx="50" ry="21" fill="#20232a"/><path d="M196 404 Q262 378 330 404 L340 686 Q262 708 190 686 Z" fill="#3f6ea8"/><rect x="170" y="414" width="38" height="244" rx="19" fill="#315583"/><rect x="322" y="414" width="40" height="244" rx="20" fill="#3f6ea8"/><circle cx="189" cy="666" r="20" fill="#c4a486"/><circle cx="342" cy="666" r="21" fill="#f0c9a4"/><rect x="240" y="330" width="44" height="86" fill="#f0c9a4"/><ellipse cx="254" cy="242" rx="102" ry="116" fill="#3b2a26"/><ellipse cx="266" cy="264" rx="92" ry="100" fill="#f0c9a4"/><circle cx="178" cy="266" r="17" fill="#f0c9a4"/><ellipse cx="256" cy="254" rx="13" ry="15" fill="#ffffff"/><circle cx="258" cy="256" r="7" fill="#20232a"/><rect x="240" y="222" width="32" height="8" rx="4" fill="#3b2a26"/><ellipse cx="314" cy="254" rx="13" ry="15" fill="#ffffff"/><circle cx="316" cy="256" r="7" fill="#20232a"/><rect x="298" y="222" width="32" height="8" rx="4" fill="#3b2a26"/><path d="M336 252 L370 276 L336 294 Z" fill="#f0c9a4"/></svg>