<svg xmlns="http://www.w3.org/2000/svg" viewBox="0 0 512 1024" width="512" height="1024"><path d="M197.8 178.0 Q256 158.4 314.2 178.0 L403.0 970.0 Q256 986.8 109.0 970.0 Z" fill="#f0ece2"/><rect x="232.2" y="164.0" width="47.6" height="16.8" rx="4" fill="#ffffff"/><path d="M197.8 194.8 L314.2 194.8 L314.2 970.0 L197.8 970.0 Z" fill="#3f7d4f" opacity="0.55"/><rect x="317.6" y="183.6" width="28.0" height="355.6" rx="14.0" fill="#f0ece2"/><circle cx="331.6" cy="539.2" r="17.4" fill="#f2cfa8"/><rect x="235.0" y="125.3" width="42.0" height="60.7" fill="#f2cfa8"/><rect x="232.2" y="164.0" width="47.6" height="16.8" rx="4" fill="#ffffff"/><ellipse cx="256" cy="62.7" rx="57.3" ry="70.7" fill="#6b4526"/><ellipse cx="267.2" cy="78.0" rx="45.9" ry="55.3" fill="#f2cfa8"/><circle cx="247.5" cy="77.3" r="9.1" fill="#f2cfa8"/><ellipse cx="291.7" cy="69.3" rx="6.9" ry="7.8" fill="#ffffff"/><circle cx="293.7" cy="70.7" r="3.7" fill="#20232a"/><rect x="283.4" y="50.7" width="16.6" height="4.0" rx="3" fill="#603e22"/><path d="M309.2 68.0 L327.3 82.7 L309.2 93.3 Z" fill="#f2cfa8"/></svg>