<svg xmlns="http://www.w3.org/2000/svg" viewBox="0 0 512 1024" width="512" height="1024"><rect x="157.0" y="509.0" width="46.8" height="463.0" rx="23.4" fill="#373240"/><rect x="182.0" y="509.0" width="46.8" height="469.0" rx="23.4" fill="#4a4356"/><ellipse cx="205.4" cy="980" rx="41.2" ry="21.1" fill="#2a2530"/><rect x="283.2" y="509.0" width="46.8" height="469.0" rx="23.4" fill="#4a4356"/><ellipse cx="306.6" cy="980" rx="41.2" ry="21.1" fill="#2a2530"/><path d="M162.4 198.0 Q256 179.8 349.6 198.0 L366.0 541.0 Q256 556.6 146.0 541.0 Z" fill="#e8dfe8"/><circle cx="256" cy="280.3" r="5.7" fill="#b9a9c4"/><circle cx="256" cy="348.9" r="5.7" fill="#b9a9c4"/><circle cx="256" cy="417.5" r="5.7" fill="#b9a9c4"/><rect x="133.3" y="203.2" width="26.0" height="348.2" rx="13.0" fill="#b9b2b9"/><circle cx="146.3" cy="551.4" r="16.1" fill="#694026"/><rect x="352.7" y="203.2" width="26.0" height="348.2" rx="13.0" fill="#e8dfe8"/><circle cx="365.7" cy="551.4" r="16.1" fill="#7d4d2e"/><rect x="236.5" y="128.8" width="39.0" height="77.2" fill="#7d4d2e"/><ellipse cx="256" cy="64.4" rx="58.8" ry="72.5" fill="#ddd8d2"/><circle cx="208.9" cy="19.2" r="18.6" fill="#ddd8d2"/><ellipse cx="263.1" cy="80.1" rx="47.1" ry="56.8" fill="#7d4d2e"/><circle cx="219.8" cy="79.5" r="9.3" fill="#7d4d2e"/><ellipse cx="257.6" cy="71.2" rx="7.1" ry="8.0" fill="#ffffff"/><circle cx="259.6" cy="72.6" r="3.8" fill="#20232a"/><rect x="249.1" y="52.1" width="17.1" height="4.1" rx="3" fill="#c6c2bd"/><ellipse cx="290.5" cy="71.2" rx="7.1" ry="8.0" fill="#ffffff"/><circle cx="292.5" cy="72.6" r="3.8" fill="#20232a"/><rect x="282.0" y="52.1" width="17.1" height="4.1" rx="3" fill="#c6c2bd"/><path d="M299.9 69.9 L318.5 84.9 L299.9 95.9 Z" fill="#7d4d2e"/><path d="M235.7 104.1 q27.4 6.8 54.8 0" fill="none" stroke="#00000022" stroke-width="4"/></svg>