<svg xmlns="http://www.w3.org/2000/svg" viewBox="0 0 512 1024" width="512" height="1024"><rect x="166.0" y="509.0" width="46.8" height="463.0" rx="23.4" fill="#2c4053"/><rect x="186.6" y="509.0" width="46.8" height="469.0" rx="23.4" fill="#3b566f"/><ellipse cx="210.0" cy="980" rx="41.2" ry="21.1" fill="#2a2d33"/><rect x="278.6" y="509.0" width="46.8" height="469.0" rx="23.4" fill="#3b566f"/><ellipse cx="302.0" cy="980" rx="41.2" ry="21.1" fill="#2a2d33"/><path d="M152.0 198.0 Q256 179.8 360.0 198.0 L356.0 541.0 Q256 556.6 156.0 541.0 Z" fill="#4a6a8a"/><path d="M152.0 213.6 L360.0 213.6 L360.0 541.0 L152.0 541.0 Z" fill="#d9c48a" opacity="0.55"/><rect x="122.9" y="203.2" width="26.0" height="348.2" rx="13.0" fill="#7a4b2d"/><rect x="122.9" y="203.2" width="26.0" height="146.2" rx="13.0" fill="#3b546e"/><circle cx="135.9" cy="551.4" r="16.1" fill="#694026"/><rect x="363.1" y="203.2" width="26.0" height="348.2" rx="13.0" fill="#7a4b2d"/><rect x="363.1" y="203.2" width="26.0" height="146.2" rx="13.0" fill="#4a6a8a"/><circle cx="376.1" cy="551.4" r="16.1" fill="#7d4d2e"/><rect x="236.5" y="128.8" width="39.0" height="77.2" fill="#7d4d2e"/><ellipse cx="256" cy="64.4" rx="58.8" ry="72.5" fill="#b9b3ad"/><ellipse cx="256" cy="56.2" rx="48.2" ry="56.2" fill="#7d4d2e"/><ellipse cx="263.1" cy="80.1" rx="47.1" ry="56.8" fill="#7d4d2e"/><path d="M201.2 75.3 q5.5 -37.7 23.0 -42.5 q-16.4 19.2 -6.6 42.5 Z" fill="#b9b3ad"/><circle cx="219.8" cy="79.5" r="9.3" fill="#7d4d2e"/><ellipse cx="257.6" cy="71.2" rx="7.1" ry="8.0" fill="#ffffff"/><circle cx="259.6" cy="72.6" r="3.8" fill="#20232a"/><rect x="249.1" y="52.1" width="17.1" height="4.1" rx="3" fill="#a6a19b"/><ellipse cx="290.5" cy="71.2" rx="7.1" ry="8.0" fill="#ffffff"/><circle cx="292.5" cy="72.6" r="3.8" fill="#20232a"/><rect x="282.0" y="52.1" width="17.1" height="4.1" rx="3" fill="#a6a19b"/><path d="M299.9 69.9 L318.5 84.9 L299.9 95.9 Z" fill="#7d4d2e"/><path d="M235.7 104.1 q27.4 6.8 54.8 0" fill="none" stroke="#00000022" stroke-width="4"/></svg>